<svg xmlns="http://www.w3.org/2000/svg" viewBox="0 0 200 200" width="200" height="200">
  <circle cx="100" cy="90" r="80" fill="#1a7abf"/>
  <!-- Menorah stylized -->
  <g fill="white" transform="translate(100,85)">
    <!-- Base -->
    <path d="M-35,30 Q-30,20 0,18 Q30,20 35,30 L30,35 Q25,28 0,25 Q-25,28 -30,35 Z"/>
    <!-- Center stem -->
    <rect x="-3" y="-45" width="6" height="65" rx="2"/>
    <!-- Left branches -->
    <path d="M-3,-10 Q-25,-25 -30,-45 L-24,-45 Q-20,-28 -3,-15 Z"/>
    <path d="M-3,-5 Q-35,-15 -42,-40 L-36,-40 Q-30,-18 -3,-10 Z"/>
    <path d="M-3,0 Q-42,-8 -50,-35 L-44,-35 Q-38,-12 -3,-5 Z"/>
    <!-- Right branches -->
    <path d="M3,-10 Q25,-25 30,-45 L24,-45 Q20,-28 3,-15 Z"/>
    <path d="M3,-5 Q35,-15 42,-40 L36,-40 Q30,-18 3,-10 Z"/>
    <path d="M3,0 Q42,-8 50,-35 L44,-35 Q38,-12 3,-5 Z"/>
    <!-- Flames -->
    <ellipse cx="0" cy="-50" rx="4" ry="7"/>
    <ellipse cx="-30" cy="-50" rx="3" ry="6"/>
    <ellipse cx="-42" cy="-45" rx="3" ry="6"/>
    <ellipse cx="-50" cy="-40" rx="3" ry="6"/>
    <ellipse cx="30" cy="-50" rx="3" ry="6"/>
    <ellipse cx="42" cy="-45" rx="3" ry="6"/>
    <ellipse cx="50" cy="-40" rx="3" ry="6"/>
  </g>
</svg>
